<svg xmlns="http://www.w3.org/2000/svg" viewBox="0 0 64 64" width="64" height="64">
  <defs>
    <style>
      .contrast-stroke {
        stroke: #000000;
        stroke-opacity: 0.75;
        stroke-width: 8.2;
        stroke-linecap: round;
        stroke-linejoin: round;
        fill: #000000;
      }
      .outline-stroke {
        stroke: #F5F1FF;
        stroke-width: 5.2;
        stroke-linecap: round;
        stroke-linejoin: round;
        fill: #000000;
      }
      .contrast-stroke-hollow {
        stroke: #000000;
        stroke-opacity: 0.75;
        stroke-width: 8.2;
        stroke-linecap: round;
        stroke-linejoin: round;
        fill: none;
      }
      .outline-stroke-hollow {
        stroke: #F5F1FF;
        stroke-width: 5.2;
        stroke-linecap: round;
        stroke-linejoin: round;
        fill: none;
      }
      .contrast-stroke-lean {
        stroke: #000000;
        stroke-opacity: 0.75;
        stroke-width: 7.0;
        stroke-linecap: round;
        stroke-linejoin: round;
        fill: #000000;
      }
      .outline-stroke-lean {
        stroke: #F5F1FF;
        stroke-width: 4.2;
        stroke-linecap: round;
        stroke-linejoin: round;
        fill: #000000;
      }
      .accent-fill {
        fill: #B18CFF;
      }
      .accent-stroke {
        stroke: #B18CFF;
        stroke-width: 5.2;
        stroke-linecap: round;
        stroke-linejoin: round;
        fill: none;
      }
      .contrast-fill {
        fill: #000000;
        fill-opacity: 0.75;
      }
      .solid-black {
        fill: #000000;
      }
    </style>
  </defs>

  <!-- Tri-Arc Spinner connecting 3 purple dots with solid black backdrop -->
  <circle cx="32" cy="32" r="23" fill="#000000" />
  
  <!-- Dark Contrast Arcs -->
  <path class="contrast-stroke-hollow" d="M 32 14.5 A 19.8 19.8 0 0 1 47.8 41.8" />
  <path class="contrast-stroke-hollow" d="M 47.8 41.8 A 19.8 19.8 0 0 1 16.2 41.8" />
  <path class="contrast-stroke-hollow" d="M 16.2 41.8 A 19.8 19.8 0 0 1 32 14.5" />

  <!-- Pale Lilac Outline Arcs -->
  <path class="outline-stroke-hollow" d="M 32 14.5 A 19.8 19.8 0 0 1 47.8 41.8" />
  <path class="outline-stroke-hollow" d="M 47.8 41.8 A 19.8 19.8 0 0 1 16.2 41.8" />
  <path class="outline-stroke-hollow" d="M 16.2 41.8 A 19.8 19.8 0 0 1 32 14.5" />

  <!-- 3 Purple Accent Dots -->
  <circle cx="32" cy="14.5" r="7.2" fill="#000000" />
  <circle class="accent-fill" cx="32" cy="14.5" r="5.4" />

  <circle cx="47.8" cy="41.8" r="7.2" fill="#000000" />
  <circle class="accent-fill" cx="47.8" cy="41.8" r="5.4" />

  <circle cx="16.2" cy="41.8" r="7.2" fill="#000000" />
  <circle class="accent-fill" cx="16.2" cy="41.8" r="5.4" />

</svg>